<?xml version="1.0" encoding="utf-8"?>
<!-- Generator: Adobe Illustrator 15.1.0, SVG Export Plug-In . SVG Version: 6.00 Build 0)  -->
<!DOCTYPE svg PUBLIC "-//W3C//DTD SVG 1.1//EN" "http://www.w3.org/Graphics/SVG/1.1/DTD/svg11.dtd">
<svg version="1.1" id="Layer_1" xmlns="http://www.w3.org/2000/svg" xmlns:xlink="http://www.w3.org/1999/xlink" x="0px" y="0px"
	 width="88.147px" height="43.968px" viewBox="0 0 88.147 43.968" enable-background="new 0 0 88.147 43.968" xml:space="preserve">
<g>
	<g>
		<defs>
			<path id="SVGID_1_" d="M486.179,683.343"/>
		</defs>
		<clipPath id="SVGID_2_">
			<use xlink:href="#SVGID_1_"  overflow="visible"/>
		</clipPath>
		<g clip-path="url(#SVGID_2_)">
			<defs>
				<path id="SVGID_3_" d="M489.239,693.258"/>
			</defs>
			<clipPath id="SVGID_4_">
				<use xlink:href="#SVGID_3_"  overflow="visible"/>
			</clipPath>
		</g>
	</g>
</g>
<g>
	<defs>
		<rect id="SVGID_5_" x="0.019" y="0" width="88.128" height="44.064"/>
	</defs>
	<clipPath id="SVGID_6_">
		<use xlink:href="#SVGID_5_"  overflow="visible"/>
	</clipPath>
	<rect x="0.019" y="0" clip-path="url(#SVGID_6_)" fill="#FFF9B8" width="88.128" height="43.968"/>
	<path clip-path="url(#SVGID_6_)" fill="#253874" d="M88.223,43.968l0-44.029H0v44.03L88.223,43.968z M1.078,42.89V1.016l86.066,0
		l0,41.874L1.078,42.89z"/>
</g>
<polyline fill="#253874" points="12.539,11.22 10.907,19.085 10.959,19.085 19.486,11.22 24.959,11.22 15.934,18.953 21.697,30.001 
	17.039,30.001 12.749,21.553 9.88,24.053 8.644,30.001 4.512,30.001 8.407,11.22 12.539,11.22 "/>
<path fill="#253874" d="M25.191,24.347c0,0.07,0,0.141,0,0.209v0.343c0,0.789,0.245,1.429,0.737,1.919
	c0.49,0.489,1.245,0.734,2.263,0.734c0.368,0,0.697-0.056,0.987-0.171c0.289-0.114,0.543-0.259,0.763-0.436
	c0.219-0.175,0.412-0.378,0.579-0.607c0.166-0.228,0.32-0.448,0.461-0.66h3.736c-0.299,0.774-0.649,1.451-1.053,2.031
	c-0.403,0.579-0.887,1.067-1.447,1.463c-0.563,0.396-1.216,0.69-1.962,0.883c-0.745,0.193-1.608,0.29-2.591,0.29
	c-0.913,0-1.743-0.123-2.489-0.369c-0.747-0.245-1.386-0.619-1.914-1.12c-0.529-0.501-0.939-1.12-1.229-1.859
	c-0.291-0.738-0.436-1.599-0.436-2.584c0-1.09,0.175-2.14,0.527-3.15c0.354-1.011,0.851-1.907,1.494-2.689s1.431-1.406,2.361-1.872
	c0.93-0.466,1.975-0.699,3.133-0.699c0.947,0,1.812,0.124,2.592,0.37s1.447,0.62,2,1.122c0.552,0.502,0.982,1.127,1.289,1.876
	c0.308,0.748,0.461,1.615,0.461,2.601c0,0.67-0.069,1.384-0.21,2.141H25.217C25.2,24.198,25.191,24.277,25.191,24.347
	 M31.736,20.695c-0.062-0.345-0.18-0.656-0.356-0.938c-0.175-0.282-0.429-0.507-0.763-0.674c-0.333-0.168-0.771-0.252-1.314-0.252
	c-0.527,0-0.992,0.08-1.396,0.238c-0.404,0.159-0.755,0.37-1.053,0.634c-0.298,0.265-0.548,0.573-0.75,0.926
	s-0.373,0.722-0.513,1.109h6.236C31.828,21.386,31.796,21.039,31.736,20.695z"/>
<path fill="#253874" d="M41.166,16.383l-0.367,1.682l0.053,0.053c0.42-0.74,0.995-1.278,1.723-1.613
	c0.729-0.335,1.513-0.503,2.356-0.503c1.648,0,2.921,0.483,3.814,1.45c0.896,0.967,1.343,2.277,1.343,3.929
	c0,1.125-0.149,2.225-0.447,3.296c-0.298,1.072-0.754,2.03-1.368,2.874c-0.615,0.845-1.382,1.521-2.303,2.03
	s-2.014,0.765-3.276,0.765c-0.386,0-0.777-0.045-1.172-0.132c-0.395-0.088-0.763-0.219-1.105-0.395
	c-0.342-0.177-0.648-0.399-0.921-0.672c-0.271-0.271-0.478-0.593-0.618-0.961h-0.078l-1.422,6.597h-3.711l3.896-18.399H41.166
	 M41.865,19.398c-0.509,0.378-0.935,0.855-1.277,1.436c-0.341,0.58-0.596,1.207-0.763,1.884c-0.167,0.678-0.25,1.305-0.25,1.885
	c0,0.896,0.22,1.611,0.658,2.146c0.438,0.536,1.114,0.803,2.027,0.803c0.719,0,1.333-0.184,1.842-0.553s0.929-0.834,1.263-1.396
	c0.333-0.563,0.579-1.178,0.737-1.845s0.236-1.3,0.236-1.896c0-0.404-0.057-0.79-0.171-1.16c-0.114-0.369-0.28-0.689-0.501-0.962
	c-0.219-0.271-0.495-0.491-0.829-0.658c-0.333-0.167-0.719-0.251-1.156-0.251C42.979,18.831,42.374,19.021,41.865,19.398z"/>
<polyline fill="#253874" points="57.407,11.22 53.407,30.001 49.697,30.001 53.669,11.22 57.407,11.22 "/>
<path fill="#253874" d="M59.401,24.347c0,0.07,0,0.141,0,0.209v0.343c0,0.789,0.245,1.429,0.736,1.919
	c0.491,0.489,1.246,0.734,2.264,0.734c0.368,0,0.697-0.056,0.986-0.171c0.29-0.114,0.544-0.259,0.764-0.436
	c0.219-0.175,0.412-0.378,0.579-0.607c0.166-0.228,0.319-0.448,0.46-0.66h3.737c-0.299,0.774-0.649,1.451-1.053,2.031
	c-0.404,0.579-0.887,1.067-1.447,1.463c-0.563,0.396-1.216,0.69-1.961,0.883c-0.746,0.193-1.609,0.29-2.592,0.29
	c-0.913,0-1.742-0.123-2.489-0.369c-0.747-0.245-1.387-0.619-1.914-1.12c-0.529-0.501-0.939-1.12-1.229-1.859
	c-0.291-0.738-0.437-1.599-0.437-2.584c0-1.09,0.176-2.14,0.528-3.15s0.851-1.907,1.494-2.689s1.431-1.406,2.361-1.872
	c0.93-0.466,1.974-0.699,3.133-0.699c0.947,0,1.812,0.124,2.592,0.37s1.447,0.62,2,1.122s0.982,1.127,1.289,1.876
	c0.308,0.748,0.461,1.615,0.461,2.601c0,0.67-0.07,1.384-0.21,2.141H59.427C59.409,24.198,59.401,24.277,59.401,24.347
	 M65.946,20.695c-0.062-0.345-0.18-0.656-0.355-0.938s-0.43-0.507-0.764-0.674c-0.333-0.168-0.771-0.252-1.314-0.252
	c-0.527,0-0.992,0.08-1.396,0.238c-0.404,0.159-0.755,0.37-1.053,0.634c-0.299,0.265-0.548,0.573-0.75,0.926
	s-0.373,0.722-0.513,1.109h6.236C66.038,21.386,66.007,21.039,65.946,20.695z"/>
<path fill="#253874" d="M75.458,16.422l-0.552,2.439l0.052,0.053c0.421-0.949,1.058-1.665,1.908-2.149
	c0.852-0.482,1.776-0.725,2.776-0.725c0.386,0,0.771,0.026,1.158,0.078l-0.764,3.64c-0.263-0.053-0.525-0.105-0.789-0.159
	c-0.263-0.052-0.526-0.078-0.79-0.078c-0.719,0-1.329,0.122-1.828,0.367c-0.501,0.245-0.922,0.578-1.264,0.999
	c-0.342,0.42-0.614,0.897-0.815,1.432c-0.202,0.534-0.364,1.09-0.486,1.667L72.8,30.001h-3.71l2.815-13.579H75.458"/>
<path fill="#FFFFFF" d="M64.979,9.442c0.203,2.062,1.614,3.664,3.79,3.648l0.227-0.013c2.175-0.023,3.931-1.82,3.915-3.994
	c-0.021-2.176-1.798-3.92-3.973-3.905c-2.175,0.022-4.008,1.773-3.994,3.948L64.979,9.442"/>
<path fill-rule="evenodd" clip-rule="evenodd" fill="#253874" d="M69.132,5.455c0.056-0.193,0.167,0.086,0.33,0
	C69.444,5.61,69.171,5.494,69.132,5.455 M70.652,6.182c0.024-0.243-0.165-0.275-0.331-0.329c-0.088,0.094-0.375,0.094-0.463,0
	C69.97,6.251,70.453,5.87,70.652,6.182 M70.585,6.646c0.014-0.256-0.104-0.38-0.33-0.397C70.31,6.437,70.405,6.584,70.585,6.646
	 M71.578,6.777c-0.026-0.193-0.226-0.214-0.331-0.33C71.276,6.638,71.386,6.748,71.578,6.777 M68.273,6.975
	c-0.072-0.169,0.201-0.313,0-0.396C68.193,6.729,68.082,6.87,68.273,6.975 M69.066,6.91c-0.125,0.014-0.146-0.075-0.264-0.067
	C68.784,7.037,69.058,7.097,69.066,6.91 M66.819,7.174c0.167,0.07,0.376-0.139,0.198-0.199C67.042,7.134,66.716,6.939,66.819,7.174
	 M67.149,7.306c0.01-0.077,0.118-0.149,0-0.197C67.14,7.187,67.032,7.258,67.149,7.306 M70.19,7.306
	C69.921,7.073,70.033,7.52,70.19,7.306 M68.273,7.703c0-0.067,0.053-0.079,0.065-0.133c-0.104,0.007-0.229-0.008-0.197,0.133H68.273
	z M69.727,8.76c0.045-0.178-0.137-0.128-0.199-0.197C69.483,8.74,69.665,8.69,69.727,8.76 M69.925,9.553
	c0.084,0.091,0.323,0.103,0.33-0.065C70.17,9.397,69.932,9.385,69.925,9.553 M70.322,9.751v0.133h0.132V9.751H70.322z M70.52,10.28
	c0.18,0.006,0.133-0.11,0.265,0v-0.132c-0.066,0.001-0.079-0.054-0.133-0.066C70.636,10.176,70.542,10.194,70.52,10.28
	 M70.058,10.479c0.019-0.041,0.164-0.256,0-0.266C70.038,10.255,69.893,10.469,70.058,10.479 M69,11.8
	c0.187-0.011,0.454,0.058,0.463-0.132c-0.201,0.048-0.194-0.114-0.396-0.065C69.069,11.693,69.035,11.747,69,11.8 M70.388,12.462
	c-0.02-0.178,0.49-0.163,0.264-0.331C70.615,12.253,70.162,12.295,70.388,12.462 M68.668,12.792c0.024-0.175,0.337-0.06,0.397-0.198
	C68.861,12.501,68.511,12.598,68.668,12.792 M69.859,6.513c-0.117-0.268-0.391-0.534-0.595-0.198
	C69.458,6.326,70.007,6.588,69.859,6.513 M65.072,8.9c-0.162,2.197,1.523,3.885,3.201,4.023V12.66
	c0.415,0.003,0.763-0.789,1.388-0.595c0.01,0.076-0.012,0.187,0.066,0.197c-0.019-0.123,0.465,0.14,0.528-0.065
	c-0.176,0-0.169-0.185-0.265-0.265c-0.162,0.204-0.752-0.268-1.123,0.066c0.058-0.274,0.087-0.573,0.396-0.595
	c-0.041-0.256-0.055-0.272,0.065-0.463c-0.091-0.003-0.145,0.03-0.197,0.065c0.02-0.134,0.179-0.129,0.197-0.264
	c-0.137-0.039-0.225-0.127-0.264-0.264c-0.186,0.034-0.344,0.097-0.529,0.132c0.057-0.187,0.188-0.297,0.463-0.266
	c0.009-0.418,0.22-0.094,0.33-0.197c-0.075-0.129,0.061-0.521,0.266-0.728c-0.196-0.023-0.326-0.115-0.397-0.264
	c-0.068-0.267,0.104-0.294,0.198-0.397c-0.186,0.012-0.215-0.187-0.132-0.264c-0.097,0.036-0.341-0.078-0.33,0.066
	c0.065,0,0.083,0.115,0,0.132c-0.114-0.021,0.086-0.23-0.198-0.198c0.053,0.34-0.419,0.154-0.595,0.264
	c0.029-0.263-0.466-0.126-0.463,0c-0.113-0.252,0.195-0.412,0.065-0.462c-0.026,0.083-0.085,0.135-0.198,0.132
	c0.198-0.194,0.198-0.268,0-0.463c0.191-0.153,0.317,0.086,0.463-0.065c-0.164-0.122-0.004-0.121,0.133-0.066
	c0.015-0.125-0.075-0.146-0.067-0.265c-0.182,0.208-0.403-0.016-0.528,0.199c-0.183-0.268,0.232-0.141,0.198-0.331
	c-0.019-0.233-0.179,0.233-0.198,0c-0.002-0.1,0.245-0.271,0.066-0.33c-0.014,0.08-0.073,0.041-0.132,0
	c-0.163,0.233-0.226,0.567-0.595,0.595c0.019-0.175,0.39-0.14,0.197-0.331c-0.192-0.055-0.214,0.394-0.33,0.198
	c-0.065-0.184,0.375-0.188,0.133-0.33c-0.107,0.104-0.209,0.025-0.331,0c-0.115,0.259-0.307,0.442-0.596,0.529
	c-0.164-0.033-0.271-0.125-0.396-0.199c-0.009-0.382,0.321-0.429,0.463-0.66C65.86,6.822,65.157,7.745,65.072,8.9 M65.958,8.563
	c-0.219,0.523,0.485,1.044,1.059,1.189c-0.76,0.076-1.125-0.813-1.719-1.124C65.5,8.5,65.634,8.303,65.695,8.033
	c0.148,0.117,0.434,0.095,0.463,0.331c0.146-0.053,0.165-0.231,0.264-0.331c0.175,0.017,0.218,0.136,0.198-0.132
	c0.141,0.14,0.214,0.41,0.133,0.661c0.099,0.218,0.077-0.222,0.265-0.133c-0.056,0.187,0.093,0.171,0.065,0.33
	c-0.226,0.018-0.359,0.124-0.528,0.199c0.009-0.119-0.08-0.14-0.065-0.265c0.052,0.035,0.107,0.068,0.197,0.065
	c0.009-0.269-0.407-0.013-0.197-0.33c-0.296,0.043-0.287,0.243-0.331,0.396C66.068,8.761,66.072,8.604,65.958,8.563 M67.281,8.563
	h-0.198c0.071-0.247-0.164-0.189-0.132-0.397C67.072,8.053,67.106,8.396,67.281,8.563 M68.207,10.148
	c0.125,0.028,0.166,0.143,0.33,0.132c-0.028,0.147-0.117,0.235-0.264,0.264C68.321,10.343,68.159,10.35,68.207,10.148
	 M68.008,10.412c-0.059-0.051-0.149-0.071-0.265-0.066C67.755,10.155,68.058,10.188,68.008,10.412 M68.603,10.677
	c0.117,0,0.191,0.371,0.331,0.132c0.202,0.065-0.076,0.177-0.066,0.265c-0.127-0.115-0.408-0.077-0.396-0.33
	c0.056-0.012,0.062,0.026,0.065,0.065C68.601,10.807,68.588,10.729,68.603,10.677 M67.149,11.338
	c0.125,0.074,0.381-0.049,0.463,0.198c0.125-0.096,0.344-0.097,0.396-0.264c0.016,0.262,0.105-0.105,0.33,0.065
	c-0.164,0.188-0.423,0.282-0.793,0.265c0.043,0.066,0.152,0.068,0.133,0.197c-0.146,0.139-0.284-0.104-0.529-0.065
	c0.035-0.054,0.069-0.107,0.066-0.198c-0.165-0.011-0.207,0.101-0.265,0.198c0.008-0.25-0.391-0.095-0.331-0.396
	c-0.368,0.146-0.563-0.094-0.727-0.331c0.028-0.231,0.14-0.279,0.331-0.198c-0.048,0.202,0.066,0.241,0.065,0.397
	c0.456-0.103,0.454,0.252,0.728,0.33C67.098,11.507,67.153,11.452,67.149,11.338 M68.207,10.875c0.171-0.04,0.238,0.027,0.198,0.198
	c-0.053-0.012-0.066-0.066-0.132-0.066c-0.128,0.027-0.006,0.304-0.265,0.199C68.029,11.05,68.238,11.083,68.207,10.875
	 M68.603,11.073c0.082,0.029,0.136,0.085,0.133,0.199C68.505,11.329,68.509,11.17,68.603,11.073 M67.545,12.462
	c-0.187-0.055-0.171,0.092-0.33,0.066c-0.072-0.171-0.167-0.318-0.33-0.397C67.027,11.863,67.533,12.18,67.545,12.462
	 M70.785,10.677c-0.055-0.161-0.515-0.138-0.396-0.396c-0.304,0.036-0.248,0.282-0.198,0.528c0.189,0.093,0.335-0.18,0.396,0
	c-0.005,0.307-0.299,0.015-0.463,0.066c-0.039,0.247-0.21,0.363-0.264,0.595c-0.174,0.172-0.052-0.106-0.264-0.065
	c-0.189,0.208,0.377,0.588,0.132,0.528c2.6,0.624,1.88-1.249,2.644-2.049c-0.038-0.177,0.195-0.413,0-0.528
	c-0.168,0.143-0.304,0.663-0.463,0.595c0.091-0.239,0.291-0.37,0.331-0.661h-0.794c-0.011,0.099,0.024,0.244-0.066,0.264
	c-0.029-0.233-0.313-0.216-0.594-0.197c-0.004,0.596,0.566,0.218,0.728,0.462c0.089,0.229-0.299,0.312-0.067,0.463
	c0.031-0.168,0.286-0.11,0.331-0.265c0.018,0.283-0.192,0.338-0.331,0.464c-0.007-0.081-0.019-0.157-0.132-0.134
	c-0.053,0.212-0.154,0.375-0.397,0.397c-0.056-0.302,0.397-0.438,0.199-0.661c-0.006,0.092-0.169,0.069-0.132-0.066
	c0.036,0,0.075-0.053,0-0.065C70.767,10.101,70.972,10.606,70.785,10.677 M71.709,9.686c0.241,0.104-0.153,0.099-0.066,0.265
	C71.442,9.885,71.72,9.774,71.709,9.686 M70.718,10.875v-0.132h0.132v0.132H70.718z M70.123,11.404v-0.133h0.133v0.133H70.123z
	 M69.859,6.712v0.263c0.135,0.134,0.129-0.028,0.264-0.064c0.025,0.5,0.638,0.14,0.793,0c-0.067,0.283-0.282,0.421-0.66,0.396
	c-0.091,0.151,0.171,0.249,0,0.265c-0.232-0.188-0.647-0.54-0.859-0.528c0.307,0.12-0.059,0.386-0.132,0.528
	c0.073,0.014,0.103,0.074,0.132,0.133c0.213,0.058,0.137-0.172,0.265-0.199c-0.014,0.273-0.146,0.427-0.396,0.463
	c-0.137-0.101-0.388-0.307-0.596-0.132c0.078,0.521,1.083,0.229,1.322,0.396c-0.04,0.092-0.254,0.01-0.264,0.133
	c0.172,0.115,0.499,0.073,0.528,0.33c0.227-0.061,0.428-0.146,0.595-0.265v0.198c0.255,0.009,0.374-0.46,0.595-0.264
	c0.015,0.256-0.398,0.085-0.396,0.33c0.245,0.004,0.418-0.067,0.594-0.132c0.116-0.234-0.043-0.163-0.065-0.397
	c0.1,0.157,0.278,0.066,0.33,0.133c-0.052,0.015-0.077,0.056-0.065,0.132c0.13,0.02,0.131-0.089,0.197-0.132
	c0.01,0.189,0.083,0.313,0.331,0.265c0.067-0.384-0.147-0.584-0.265-0.596c0.153-0.146-0.022-0.258,0-0.463
	c-0.276-0.033-0.447,0.037-0.594,0.133c-0.046-0.234-0.276-0.293-0.266-0.727c-0.162-0.06-0.358-0.082-0.396-0.265
	c-0.237,0.436-0.29,0.04-0.595,0.329c0.02-0.129-0.089-0.131-0.133-0.197c0.006-0.104,0.169-0.053,0.133-0.198
	C70.068,6.568,70.126,6.802,69.859,6.712 M71.049,7.306c-0.047,0.054-0.104,0.182,0,0.198c-0.116,0.196-0.353-0.038-0.529,0
	C70.545,7.288,70.844,7.344,71.049,7.306 M70.52,7.57c0.128,0.203,0.598,0.063,0.595,0.396c-0.359,0.037-0.42,0.099-0.859,0.132
	c-0.024-0.111,0.052-0.124,0.133-0.132c0.011-0.077-0.016-0.118-0.066-0.132c-0.003-0.098,0.392-0.096,0.066-0.132
	C70.404,7.631,70.519,7.658,70.52,7.57 M71.709,7.901c-0.028,0.081-0.085,0.136-0.197,0.132C71.54,7.952,71.596,7.897,71.709,7.901
	 M67.942,7.108c-0.108-0.05-0.287,0.131-0.132,0.132c0.037-0.191,0.103,0.101,0.198,0.065C68.136,7.182,68.132,7,68.074,6.91
	C68.042,6.988,68.003,7.059,67.942,7.108 M71.709,7.306c0.003-0.04,0.011-0.077,0.066-0.065c0.004,0.04,0.01,0.078,0.066,0.065
	C71.9,7.17,71.67,7.009,71.643,7.174c0.041,0.004,0.079,0.01,0.066,0.066C71.673,7.24,71.635,7.294,71.709,7.306 M70.322,9.355
	c0.009,0.3,0.221,0.395,0.264,0.66c0.012-0.076,0.105-0.071,0.199-0.065c0.027-0.159-0.121-0.145-0.066-0.33
	C70.44,9.792,70.485,9.469,70.322,9.355 M69.727,10.412c0.058-0.059,0.189-0.372,0.065-0.396
	C69.666,10.134,69.67,10.535,69.727,10.412 M64.752,9.166c0,2.288,1.855,4.143,4.145,4.143c2.288,0,4.144-1.854,4.144-4.143
	c0-2.289-1.856-4.144-4.144-4.144C66.607,5.022,64.752,6.877,64.752,9.166 M65.088,9.166c0.005-2.103,1.705-3.805,3.808-3.808
	c2.103,0.003,3.805,1.705,3.808,3.808c-0.314,3.671-3.694,3.745-3.808,3.807C66.721,13.11,65.093,11.27,65.088,9.166 M69.727,10.677
	c0.096,0.029-0.007,0.059,0,0.132c0.022,0.094,0.116,0.007,0.132-0.065c0.191,0.195-0.173,0.396-0.396,0.396v-0.265
	c0.081,0.029,0.136,0.085,0.133,0.198C69.709,10.974,69.527,10.789,69.727,10.677"/>
<path fill-rule="evenodd" clip-rule="evenodd" fill="#253874" d="M64.777,8.531c-5.78,0.082-11.989,0.923-18.708,2.54
	c-7.679,1.848-14.817,4.464-20.643,7.563c-5.761,3.065-9.697,6.312-11.387,9.39c-0.765,1.394-1.051,2.735-0.85,3.987
	c0.202,1.252,0.883,2.361,2.024,3.297c2.518,2.065,7.168,3.244,13.447,3.411c6.354,0.168,13.77-0.72,21.448-2.567
	c7.679-1.849,14.817-4.464,20.643-7.563c5.76-3.064,9.697-6.311,11.387-9.389c0.765-1.395,1.051-2.736,0.849-3.988
	s-0.882-2.361-2.022-3.297c-2.519-2.065-4.637-3.094-11.407-3.342c-0.325,0.518-0.076,0.744-0.076,0.744
	c6.202,0.098,8.572,1.2,11.109,3.28c0.986,0.81,1.571,1.742,1.737,2.773c0.166,1.03-0.086,2.165-0.748,3.372
	C78.23,24.846,65.235,31.673,49.98,35.345s-29.397,3.376-34.393-0.72c-0.986-0.809-1.571-1.742-1.737-2.772s0.086-2.165,0.748-3.371
	c3.351-6.104,16.346-12.933,31.601-16.604c6.667-1.604,13.045-2.458,18.616-2.561L64.777,8.531"/>
</svg>
